<svg width="62" height="62" viewBox="0 0 62 62" fill="none" xmlns="http://www.w3.org/2000/svg">
<path d="M52.4327 30.6451C56.0387 30.1186 63.0565 27.3198 61.4477 22.5813C60.1163 18.6602 54.3744 18.8403 51.2954 20.1982C48.8961 21.265 45.6784 24.1331 46.8573 27.0704C47.523 28.6915 50.3523 30.2017 52.4327 30.6451Z" fill="#28AC7C"/>
<path d="M32.0165 38.1553C41.614 36.8806 35.8445 26.3367 30.1442 30.909C28.3135 32.3777 27.0375 34.1096 28.3828 36.2433C29.2704 37.6565 31.0734 38.6264 32.6406 38.1553" fill="#28AC7C"/>
<path d="M30.6445 17.1642C41.4209 13.9914 32.3088 1.1059 26.5115 8.29682C23.2523 12.3287 26.6225 15.7371 30.6445 17.1642Z" fill="#28AC7C"/>
<path d="M11.8243 22.7204C13.2667 19.8523 13.9324 16.6517 10.6732 14.7812C8.81468 16.0282 6.48465 18.5083 7.20585 21.0162C7.66353 22.5957 10.2571 24.6878 11.5747 23.2053" fill="#28AC7C"/>
<path d="M43.2506 51.2074C47.55 52.1219 53.1255 46.2888 46.5653 45.4159C42.3907 44.8617 38.4379 48.9906 43.2506 51.2074Z" fill="#28AC7C"/>
<path d="M48.2997 6.74509C51.0736 8.10291 53.3065 7.21617 55.0818 4.58365C56.4687 2.5192 56.4409 1.29993 54.1109 0.246924C50.602 -1.34644 43.9725 5.23485 48.2997 6.74509Z" fill="#28AC7C"/>
<path d="M7.46888 39.582C8.78646 39.0416 12.3647 37.9886 11.6158 35.9657C11.0749 34.4971 9.36898 34.8573 8.30105 35.1344C7.16377 35.4254 4.84759 36.2428 4.81985 37.7669C4.80598 38.7784 6.42869 39.9699 7.38567 39.3464" fill="#28AC7C"/>
<path d="M20.7144 61.9998C22.9751 61.3902 26.8863 58.4252 25.3468 55.6818C24.1263 53.5065 21.8933 54.5595 20.5619 55.9312C18.7589 57.774 18.2457 60.739 20.7144 61.9998Z" fill="#28AC7C"/>
<path d="M1.79646 58.9374C3.41914 58.2031 6.45647 56.0694 5.94332 53.9357C5.55498 52.3146 3.58558 51.4694 2.07384 52.1344C-0.145223 53.1182 -1.07445 57.6766 1.79646 58.9374Z" fill="#28AC7C"/>
</svg>
