<svg width="67" height="81" viewBox="0 0 67 81" fill="none" xmlns="http://www.w3.org/2000/svg">
<path d="M38.7705 11.5986C35.4966 13.4935 38.8015 18.193 41.0682 19.2357C44.4468 20.7869 48.5855 21.3297 52.5514 21.2118C49.0929 22.6134 45.6246 24.2475 42.2801 26.0947C42.1619 26.1176 42.0436 26.1404 41.9254 26.1633C41.7385 26.0175 41.52 25.9053 41.2257 25.8818C35.3968 25.5222 30.1671 20.9307 24.1391 21.6042C21.4016 21.9161 16.4267 25.6913 19.4436 28.7664C22.2801 31.6647 27.7932 30.7903 31.3961 30.4803C32.9708 30.3448 34.5219 30.1314 36.0763 29.9025C28.4397 35.0986 22.0046 41.624 18.5408 49.5636C16.7623 53.6365 17.609 57.8426 22.907 55.829C25.4906 54.8444 27.154 50.5926 28.1902 48.3817C30.3075 43.8644 31.8549 38.0902 35.2934 34.3859C35.5551 34.1109 35.6622 33.8024 35.6639 33.4952C37.032 32.4813 38.4674 31.5305 39.927 30.6174C37.8069 33.3132 36.0971 36.3571 34.9129 39.5152C33.4567 43.4072 33.1366 49.6422 36.9869 52.3803C40.0948 54.5849 41.7625 48.2542 42.2074 46.5704C43.8457 40.3385 44.9987 33.9931 47.4832 28.0017C47.6507 27.601 47.6221 27.2468 47.4652 26.9619C47.6578 26.7447 47.7791 26.5202 47.7923 26.2722C50.1425 25.1317 52.5285 24.0879 54.9126 23.1652C52.6608 26.9573 51.3243 31.5309 51.0979 35.7225C50.9912 37.6012 52.8512 44.868 56.241 42.6989C59.0165 40.9386 58.5456 35.7053 58.5485 32.9219C58.5716 29.6331 58.3528 26.3403 58.1307 23.063C58.4507 22.6307 58.7828 22.2172 59.1176 21.8287C59.4408 21.7936 59.6979 21.6148 59.8723 21.3694C62.27 20.571 64.6227 19.8681 66.8742 19.2969C68.5433 18.8744 68.0196 16.2437 66.3444 16.6568C63.9029 17.2838 61.354 18.0332 58.7629 18.9029C58.6614 18.8485 58.5505 18.8001 58.4396 18.7517C58.1952 18.3102 57.744 18.0018 57.1193 18.0846C54.6702 16.8 52.1012 15.2466 49.632 14.0548C46.9659 12.7635 41.8376 9.83683 38.7705 11.5986ZM44.6011 17.6398C42.7127 17.2054 40.8528 16.5263 40.2822 14.5248C39.9057 13.1967 41.8328 13.939 42.599 14.1377C46.0991 15.0517 49.2394 16.7697 52.373 18.5185C49.7426 18.5218 47.0736 18.2173 44.6011 17.6398ZM24.9238 28.0063C24.0685 27.9581 21.1329 27.8384 21.437 26.4316C22.112 23.3086 26.436 24.3044 28.5342 24.8168C30.9415 25.3963 33.2855 26.4557 35.6729 27.3141C32.1066 27.8668 28.5125 28.2111 24.9238 28.0063ZM26.3084 46.1197C25.5538 47.7767 24.7446 49.349 23.8333 50.9073C23.6516 51.2239 19.6548 54.9284 20.3378 52.2927C21.0569 49.5274 23.0144 46.9095 24.6014 44.5835C25.9791 42.552 27.6217 40.6427 29.4303 38.8261C28.3131 41.2623 27.3586 43.8066 26.3084 46.1197ZM38.5534 49.1758C37.7379 51.1514 36.5997 45.749 36.5846 44.9202C36.5296 42.6665 37.3891 40.4495 38.2582 38.4127C39.5072 35.4792 41.4397 32.6779 43.7314 30.3107C42.5137 33.6234 41.4851 37.147 40.8069 40.4716C40.2123 43.4097 39.7038 46.3989 38.5534 49.1758ZM55.6642 37.6935C55.5899 38.4867 54.891 40.1477 55.4475 40.2686C53.6793 39.8764 53.7686 36.3187 53.8338 35.1189C53.9586 32.6696 54.6744 29.9197 55.7687 27.3653C55.954 30.8127 56.009 34.2641 55.6642 37.6935Z" fill="#179561"/>
<path d="M54.4067 70.5463L51.6098 71.3038C48.7562 72.0809 46.5893 74.4971 46.0539 77.501L45.5625 80.2503L45.0712 77.4945C44.5357 74.4906 42.3688 72.0744 39.5215 71.2973L36.7246 70.5398L39.5215 69.7953C42.3751 69.0378 44.5483 66.6477 45.1027 63.6503L45.5562 61.208L46.0098 63.6503C46.5641 66.6477 48.7437 69.0443 51.5972 69.8018L54.4067 70.5463Z" fill="#179561"/>
<path d="M9.52113 28.4592L8.01511 28.8921C6.47857 29.3361 5.31175 30.7168 5.02344 32.4333L4.75887 34.0043L4.4943 32.4296C4.20599 30.7131 3.03916 29.3324 1.50601 28.8883L0 28.4555L1.50601 28.0301C3.04256 27.5972 4.21277 26.2315 4.51126 24.5187L4.75548 23.123L4.9997 24.5187C5.29818 26.2315 6.47179 27.6009 8.00833 28.0338L9.52113 28.4592Z" fill="#179561"/>
</svg>
