<svg width="770" height="30" viewBox="0 0 770 30" fill="none" xmlns="http://www.w3.org/2000/svg">
<rect x="4" y="11" width="760" height="6" rx="3" fill="#D4E9E2"/>
<rect x="6" y="11" width="12" height="2" rx="1" fill="#009966"/>
<circle cx="385" cy="15" r="14" fill="white" stroke="#D4E9E2" stroke-width="2"/>
<path d="M382.93 18.13C384.13 17.23 386.19 15.79 386.19 13.85C386.19 12.6 385.38 11.75 384.02 11.75C382.66 11.75 381.87 12.58 381.59 13.44L382.36 13.85C382.64 13.2 383.13 12.65 383.94 12.65C384.65 12.65 385.14 13.06 385.14 13.88C385.14 15.36 383.27 16.78 381.67 18.13V19H386.48V18.13H382.93Z" fill="#70CCA5"/>
<circle cx="15" cy="15" r="14" fill="white" stroke="#006241" stroke-width="2"/>
<path d="M14.22 10.9L12.65 11.62V12.53L13.87 11.98V18H14.88V10.9H14.22Z" fill="#006241"/>
<circle cx="755" cy="15" r="14" fill="white" stroke="#D4E9E2" stroke-width="2"/>
<path d="M754.35 14.35C755.18 14.11 755.68 13.44 755.68 12.55C755.68 11.41 754.85 10.75 753.63 10.75C752.67 10.75 751.94 11.14 751.49 11.58L751.9 12.26C752.34 11.91 752.85 11.63 753.54 11.63C754.23 11.63 754.68 11.99 754.68 12.68C754.68 13.38 754.22 14.04 752.95 14.04H752.47V14.78H752.95C754.27 14.78 754.89 15.22 754.89 16.06C754.89 16.87 754.2 17.25 753.44 17.25C752.67 17.25 752.06 16.91 751.7 16.66L751.33 17.46C751.68 17.74 752.4 18.15 753.58 18.15C754.78 18.15 755.95 17.44 755.95 16.08C755.95 14.97 755.26 14.49 754.35 14.35Z" fill="#70CCA5"/>
</svg>
